<svg xmlns="http://www.w3.org/2000/svg" viewBox="0 0 900 560" font-family="system-ui,-apple-system,sans-serif">
  <rect width="900" height="560" fill="#F7F8FC" rx="16"/>

  <!-- Sidebar -->
  <rect x="0" y="0" width="200" height="560" fill="#0D1B3E" rx="16"/>
  <rect x="186" y="0" width="14" height="560" fill="#0D1B3E"/>
  <rect x="20" y="20" width="32" height="32" rx="8" fill="#F59E0B"/>
  <text x="36" y="41" fill="white" font-size="14" font-weight="800" text-anchor="middle">BT</text>
  <text x="68" y="35" fill="white" font-size="12" font-weight="700">Bharat</text>
  <text x="68" y="48" fill="#F59E0B" font-size="12" font-weight="700">Tender</text>

  <text x="44" y="99" fill="white" font-size="12" opacity="0.6">Dashboard</text>
  <text x="44" y="131" fill="white" font-size="12" opacity="0.6">My Tenders</text>
  <text x="44" y="163" fill="white" font-size="12" opacity="0.6">Vendors</text>
  <text x="44" y="195" fill="white" font-size="12" opacity="0.6">Contracts</text>
  <rect x="12" y="208" width="176" height="36" rx="8" fill="#F59E0B" opacity="0.15"/>
  <text x="44" y="231" fill="#F59E0B" font-size="12" font-weight="700">Payments &amp; Escrow</text>

  <!-- Header -->
  <rect x="216" y="16" width="668" height="48" rx="10" fill="white"/>
  <text x="236" y="46" fill="#0D1B3E" font-size="16" font-weight="800">Escrow &amp; Payment Dashboard</text>
  <rect x="736" y="24" width="136" height="32" rx="8" fill="#ECFDF5"/>
  <text x="804" y="44" fill="#059669" font-size="11" font-weight="700" text-anchor="middle">🔒 RBI Compliant</text>

  <!-- Escrow summary cards -->
  <rect x="216" y="76" width="210" height="88" rx="12" fill="#0D1B3E"/>
  <text x="236" y="100" fill="white" opacity="0.6" font-size="10" font-weight="600">TOTAL ESCROW HELD</text>
  <text x="236" y="126" fill="#F59E0B" font-size="26" font-weight="800">₹22.6L</text>
  <text x="236" y="146" fill="white" opacity="0.5" font-size="10">Across 3 active tenders</text>

  <rect x="438" y="76" width="210" height="88" rx="12" fill="#ECFDF5" stroke="#BBF7D0" stroke-width="1.5"/>
  <text x="458" y="100" fill="#059669" opacity="0.8" font-size="10" font-weight="600">RELEASED THIS MONTH</text>
  <text x="458" y="126" fill="#059669" font-size="26" font-weight="800">₹8.4L</text>
  <text x="458" y="146" fill="#059669" opacity="0.7" font-size="10">2 deliveries confirmed</text>

  <rect x="660" y="76" width="224" height="88" rx="12" fill="#FEF3C7" stroke="#FDE68A" stroke-width="1.5"/>
  <text x="680" y="100" fill="#B45309" opacity="0.8" font-size="10" font-weight="600">PAYMENT RISK</text>
  <text x="680" y="126" fill="#059669" font-size="26" font-weight="800">₹0</text>
  <text x="680" y="146" fill="#B45309" opacity="0.7" font-size="10">100% protected by escrow</text>

  <!-- Active escrow deals -->
  <rect x="216" y="176" width="450" height="296" rx="12" fill="white"/>
  <text x="236" y="204" fill="#0D1B3E" font-size="14" font-weight="800">Active Escrow Deals</text>

  <!-- Deal 1 - In progress with milestone -->
  <rect x="228" y="214" width="426" height="76" rx="10" fill="#F9FAFB" stroke="#E8EAF0" stroke-width="1"/>
  <text x="244" y="234" fill="#0D1B3E" font-size="12" font-weight="700">Steel Coils — Q2 Supply</text>
  <text x="244" y="248" fill="#6B7280" font-size="10">Vendor: Steel Master Co. · Awarded 2 Apr 2026</text>
  <rect x="244" y="256" width="340" height="8" rx="4" fill="#E8EAF0"/>
  <rect x="244" y="256" width="204" height="8" rx="4" fill="#059669"/>
  <text x="244" y="278" fill="#059669" font-size="9" font-weight="600">60% Delivered — ₹9.7L released</text>
  <text x="530" y="278" fill="#6B7280" font-size="9">₹6.5L pending delivery</text>

  <!-- Deal 2 - Awaiting delivery -->
  <rect x="228" y="298" width="426" height="68" rx="10" fill="#EFF6FF" stroke="#BFDBFE" stroke-width="1"/>
  <text x="244" y="318" fill="#0D1B3E" font-size="12" font-weight="700">Office IT Equipment Refresh</text>
  <text x="244" y="332" fill="#6B7280" font-size="10">Vendor: TechPro Solutions · Contract signed 28 Mar</text>
  <rect x="400" y="322" width="110" height="22" rx="5" fill="#DBEAFE"/>
  <text x="455" y="337" fill="#1D4ED8" font-size="10" font-weight="600" text-anchor="middle">⏳ Awaiting Delivery</text>
  <text x="244" y="356" fill="#1D4ED8" font-size="10" font-weight="600">₹6.2L held in escrow</text>

  <!-- Deal 3 - Completed -->
  <rect x="228" y="374" width="426" height="68" rx="10" fill="#F0FDF4" stroke="#BBF7D0" stroke-width="1"/>
  <text x="244" y="394" fill="#0D1B3E" font-size="12" font-weight="700">Packaging Material — Sep Batch</text>
  <text x="244" y="408" fill="#6B7280" font-size="10">Vendor: Pack &amp; Go Industries · Completed 1 Apr 2026</text>
  <rect x="400" y="396" width="100" height="22" rx="5" fill="#DCFCE7"/>
  <text x="450" y="411" fill="#059669" font-size="10" font-weight="600" text-anchor="middle">✓ Completed</text>
  <text x="244" y="432" fill="#059669" font-size="10" font-weight="600">₹3.9L released · Saved ₹62,000 vs last purchase</text>

  <!-- Right panel: contract + e-sign -->
  <rect x="678" y="176" width="206" height="296" rx="12" fill="white"/>
  <text x="698" y="204" fill="#0D1B3E" font-size="13" font-weight="800">Digital Contract</text>

  <!-- Contract document visual -->
  <rect x="698" y="214" width="166" height="200" rx="8" fill="#F9FAFB" stroke="#E8EAF0" stroke-width="1"/>
  <rect x="710" y="226" width="142" height="6" rx="3" fill="#0D1B3E" opacity="0.8"/>
  <rect x="710" y="238" width="100" height="4" rx="2" fill="#E8EAF0"/>
  <rect x="710" y="248" width="120" height="4" rx="2" fill="#E8EAF0"/>
  <rect x="710" y="258" width="90" height="4" rx="2" fill="#E8EAF0"/>
  <rect x="710" y="272" width="142" height="1" rx="1" fill="#E8EAF0"/>
  <text x="710" y="288" fill="#6B7280" font-size="9">Party A: Sharma Industries Pvt.</text>
  <text x="710" y="300" fill="#6B7280" font-size="9">Party B: Steel Master Co.</text>
  <text x="710" y="312" fill="#6B7280" font-size="9">Amount: ₹16,20,000</text>
  <text x="710" y="324" fill="#6B7280" font-size="9">Delivery: 22 April 2026</text>
  <rect x="710" y="334" width="142" height="1" rx="1" fill="#E8EAF0"/>
  <!-- DSC seal -->
  <circle cx="740" cy="368" r="18" fill="#ECFDF5" stroke="#BBF7D0" stroke-width="2"/>
  <text x="740" y="373" fill="#059669" font-size="14" font-weight="800" text-anchor="middle">✓</text>
  <text x="770" y="362" fill="#059669" font-size="10" font-weight="700">DSC Signed</text>
  <text x="770" y="374" fill="#6B7280" font-size="9">Class 3 · PKI</text>
  <text x="770" y="386" fill="#6B7280" font-size="9">2 Apr 2026</text>

  <!-- E-sign button -->
  <rect x="698" y="424" width="166" height="36" rx="8" fill="#059669"/>
  <text x="781" y="447" fill="white" font-size="11" font-weight="700" text-anchor="middle">✓ Contract Active</text>

  <!-- Bottom total bar -->
  <rect x="216" y="480" width="668" height="60" rx="12" fill="#0D1B3E"/>
  <text x="244" y="506" fill="white" opacity="0.6" font-size="10">Total Protected</text>
  <text x="244" y="524" fill="#F59E0B" font-size="18" font-weight="800">₹22.6L</text>
  <text x="440" y="506" fill="white" opacity="0.6" font-size="10">Deals Completed</text>
  <text x="440" y="524" fill="white" font-size="18" font-weight="800">12</text>
  <text x="590" y="506" fill="white" opacity="0.6" font-size="10">Avg Payment Time</text>
  <text x="590" y="524" fill="#10B981" font-size="18" font-weight="800">24h</text>
  <rect x="724" y="492" width="148" height="36" rx="8" fill="#F59E0B"/>
  <text x="798" y="514" fill="white" font-size="11" font-weight="700" text-anchor="middle">Release Payment</text>
</svg>
