<svg xmlns="http://www.w3.org/2000/svg" viewBox="0 0 900 560" font-family="system-ui,-apple-system,sans-serif">
  <rect width="900" height="560" fill="#F7F8FC" rx="16"/>

  <!-- Sidebar -->
  <rect x="0" y="0" width="200" height="560" fill="#0D1B3E" rx="16"/>
  <rect x="186" y="0" width="14" height="560" fill="#0D1B3E"/>
  <rect x="20" y="20" width="32" height="32" rx="8" fill="#F59E0B"/>
  <text x="36" y="41" fill="white" font-size="14" font-weight="800" text-anchor="middle">BT</text>
  <text x="68" y="35" fill="white" font-size="12" font-weight="700">Bharat</text>
  <text x="68" y="48" fill="#F59E0B" font-size="12" font-weight="700">Tender</text>

  <rect x="12" y="76" width="176" height="36" rx="8" fill="white" opacity="0.07"/>
  <text x="44" y="99" fill="white" font-size="12" opacity="0.6">Dashboard</text>
  <rect x="12" y="116" width="176" height="36" rx="8" fill="#F59E0B" opacity="0.15"/>
  <text x="44" y="139" fill="#F59E0B" font-size="12" font-weight="700">Bid Management</text>
  <text x="44" y="171" fill="white" font-size="12" opacity="0.6">Vendors</text>
  <text x="44" y="203" fill="white" font-size="12" opacity="0.6">Contracts</text>
  <text x="44" y="235" fill="white" font-size="12" opacity="0.6">Payments</text>

  <!-- Header -->
  <rect x="216" y="16" width="668" height="48" rx="10" fill="white"/>
  <text x="236" y="46" fill="#0D1B3E" font-size="16" font-weight="800">Sealed Bid Comparison</text>
  <rect x="660" y="24" width="90" height="32" rx="8" fill="#EFF6FF"/>
  <text x="705" y="44" fill="#1D4ED8" font-size="11" font-weight="700" text-anchor="middle">⏱ 2d 14h left</text>
  <rect x="758" y="24" width="114" height="32" rx="8" fill="#ECFDF5"/>
  <text x="815" y="44" fill="#059669" font-size="11" font-weight="700" text-anchor="middle">● Bidding Open</text>

  <!-- Tender info bar -->
  <rect x="216" y="76" width="668" height="48" rx="10" fill="#0D1B3E"/>
  <text x="236" y="98" fill="white" font-size="13" font-weight="700">Steel Coils — Q2 Supply</text>
  <text x="236" y="114" fill="white" opacity="0.5" font-size="10">Mumbai · 50 MT · Budget ₹15L–₹20L · Deadline: 15 Apr 2026</text>
  <rect x="780" y="86" width="90" height="28" rx="6" fill="#F59E0B"/>
  <text x="825" y="104" fill="white" font-size="11" font-weight="700" text-anchor="middle">AI Analyse</text>

  <!-- Bids table -->
  <rect x="216" y="136" width="668" height="316" rx="12" fill="white"/>

  <!-- Table header -->
  <rect x="216" y="136" width="668" height="40" rx="12" fill="#F9FAFB"/>
  <rect x="216" y="156" width="668" height="20" fill="#F9FAFB"/>
  <text x="244" y="162" fill="#6B7280" font-size="10" font-weight="700">VENDOR</text>
  <text x="390" y="162" fill="#6B7280" font-size="10" font-weight="700">VERIFICATION</text>
  <text x="520" y="162" fill="#6B7280" font-size="10" font-weight="700">BID AMOUNT</text>
  <text x="630" y="162" fill="#6B7280" font-size="10" font-weight="700">DELIVERY</text>
  <text x="740" y="162" fill="#6B7280" font-size="10" font-weight="700">RATING</text>
  <text x="820" y="162" fill="#6B7280" font-size="10" font-weight="700">ACTION</text>

  <!-- Row 1 — Best bid highlighted -->
  <rect x="228" y="180" width="644" height="52" rx="10" fill="#F0FDF4" stroke="#BBF7D0" stroke-width="1.5"/>
  <rect x="236" y="185" width="40" height="40" rx="10" fill="#0D1B3E"/>
  <text x="256" y="210" fill="white" font-size="11" font-weight="800" text-anchor="middle">SM</text>
  <text x="284" y="198" fill="#0D1B3E" font-size="12" font-weight="700">Steel Master Co.</text>
  <text x="284" y="212" fill="#6B7280" font-size="10">Mumbai, Maharashtra</text>
  <rect x="380" y="192" width="120" height="22" rx="4" fill="#DCFCE7"/>
  <text x="440" y="207" fill="#059669" font-size="10" font-weight="700" text-anchor="middle">✓ GST + Udyam Verified</text>
  <text x="515" y="198" fill="#059669" font-size="16" font-weight="800">₹16.2L</text>
  <text x="515" y="212" fill="#059669" font-size="9">🏆 Lowest Bid</text>
  <text x="625" y="205" fill="#0D1B3E" font-size="11" font-weight="600">22 Apr 2026</text>
  <text x="735" y="198" fill="#F59E0B" font-size="12">★★★★★</text>
  <text x="740" y="211" fill="#6B7280" font-size="9">4.8 (142 deals)</text>
  <rect x="816" y="191" width="44" height="28" rx="6" fill="#0D1B3E"/>
  <text x="838" y="209" fill="white" font-size="10" font-weight="700" text-anchor="middle">Award</text>

  <!-- Row 2 -->
  <rect x="228" y="240" width="644" height="52" rx="10" fill="#F9FAFB" stroke="#E8EAF0" stroke-width="1"/>
  <rect x="236" y="245" width="40" height="40" rx="10" fill="#1D4ED8"/>
  <text x="256" y="270" fill="white" font-size="11" font-weight="800" text-anchor="middle">MI</text>
  <text x="284" y="258" fill="#0D1B3E" font-size="12" font-weight="700">Mumbai Iron Works</text>
  <text x="284" y="272" fill="#6B7280" font-size="10">Thane, Maharashtra</text>
  <rect x="380" y="252" width="120" height="22" rx="4" fill="#DCFCE7"/>
  <text x="440" y="267" fill="#059669" font-size="10" font-weight="700" text-anchor="middle">✓ GST + Udyam Verified</text>
  <text x="515" y="258" fill="#0D1B3E" font-size="16" font-weight="800">₹17.1L</text>
  <text x="515" y="272" fill="#6B7280" font-size="9">+5.6% vs lowest</text>
  <text x="625" y="265" fill="#0D1B3E" font-size="11" font-weight="600">25 Apr 2026</text>
  <text x="735" y="258" fill="#F59E0B" font-size="12">★★★★★</text>
  <text x="740" y="271" fill="#6B7280" font-size="9">4.6 (89 deals)</text>
  <rect x="816" y="251" width="44" height="28" rx="6" fill="#E8EAF0"/>
  <text x="838" y="269" fill="#6B7280" font-size="10" font-weight="700" text-anchor="middle">View</text>

  <!-- Row 3 -->
  <rect x="228" y="300" width="644" height="52" rx="10" fill="#F9FAFB" stroke="#E8EAF0" stroke-width="1"/>
  <rect x="236" y="305" width="40" height="40" rx="10" fill="#7C3AED"/>
  <text x="256" y="330" fill="white" font-size="11" font-weight="800" text-anchor="middle">PS</text>
  <text x="284" y="318" fill="#0D1B3E" font-size="12" font-weight="700">Pune Steel Traders</text>
  <text x="284" y="332" fill="#6B7280" font-size="10">Pune, Maharashtra</text>
  <rect x="380" y="312" width="120" height="22" rx="4" fill="#DCFCE7"/>
  <text x="440" y="327" fill="#059669" font-size="10" font-weight="700" text-anchor="middle">✓ GST + Udyam Verified</text>
  <text x="515" y="318" fill="#0D1B3E" font-size="16" font-weight="800">₹17.8L</text>
  <text x="515" y="332" fill="#6B7280" font-size="9">+9.9% vs lowest</text>
  <text x="625" y="325" fill="#0D1B3E" font-size="11" font-weight="600">28 Apr 2026</text>
  <text x="735" y="318" fill="#F59E0B" font-size="12">★★★★☆</text>
  <text x="740" y="331" fill="#6B7280" font-size="9">4.5 (67 deals)</text>
  <rect x="816" y="311" width="44" height="28" rx="6" fill="#E8EAF0"/>
  <text x="838" y="329" fill="#6B7280" font-size="10" font-weight="700" text-anchor="middle">View</text>

  <!-- Row 4 sealed -->
  <rect x="228" y="360" width="644" height="52" rx="10" fill="#F9FAFB" stroke="#E8EAF0" stroke-width="1" opacity="0.7"/>
  <rect x="236" y="365" width="40" height="40" rx="10" fill="#6B7280"/>
  <text x="256" y="390" fill="white" font-size="11" font-weight="800" text-anchor="middle">NS</text>
  <text x="284" y="378" fill="#9CA3AF" font-size="12" font-weight="700">North Star Metals</text>
  <text x="284" y="392" fill="#9CA3AF" font-size="10">Delhi NCR</text>
  <rect x="380" y="372" width="120" height="22" rx="4" fill="#DCFCE7"/>
  <text x="440" y="387" fill="#059669" font-size="10" font-weight="700" text-anchor="middle">✓ GST + Udyam Verified</text>
  <rect x="505" y="370" width="80" height="28" rx="6" fill="#F1F5F9"/>
  <text x="545" y="388" fill="#9CA3AF" font-size="10" text-anchor="middle">🔒 Sealed</text>
  <text x="625" y="385" fill="#9CA3AF" font-size="11">Pending</text>
  <text x="735" y="378" fill="#D1D5DB" font-size="12">★★★★☆</text>
  <text x="740" y="391" fill="#9CA3AF" font-size="9">4.4 (45 deals)</text>

  <!-- AI insight bar -->
  <rect x="216" y="464" width="668" height="76" rx="12" fill="white"/>
  <rect x="228" y="476" width="4" height="52" rx="2" fill="#F59E0B"/>
  <text x="244" y="494" fill="#0D1B3E" font-size="12" font-weight="800">🤖 AI Price Intelligence</text>
  <text x="244" y="510" fill="#6B7280" font-size="11">Market rate for 50MT Steel Coils in Mumbai: ₹15.8L–₹17.2L</text>
  <text x="244" y="526" fill="#059669" font-size="11" font-weight="600">Steel Master's bid of ₹16.2L is 8% below market average — Recommended</text>
</svg>
